<?xml version="1.0" encoding="utf-8"?>
<!-- Generator: Adobe Illustrator 21.0.2, SVG Export Plug-In . SVG Version: 6.00 Build 0)  -->
<svg version="1.1" id="Plan_1" xmlns="http://www.w3.org/2000/svg" xmlns:xlink="http://www.w3.org/1999/xlink" x="0px" y="0px"
	 viewBox="0 0 886.5 840.7" style="enable-background:new 0 0 886.5 840.7;" xml:space="preserve">
<style type="text/css">
	.st0{fill-rule:evenodd;clip-rule:evenodd;}
	.st1{fill-rule:evenodd;clip-rule:evenodd;fill:#EB5D35;}
	.st2{fill-rule:evenodd;clip-rule:evenodd;fill:#A8ABAD;}
	.st3{fill-rule:evenodd;clip-rule:evenodd;fill:#FFFFFF;}
	.st4{fill-rule:evenodd;clip-rule:evenodd;fill:none;stroke:#000000;stroke-width:0.216;stroke-miterlimit:22.9256;}
	.st5{fill:#EB5D35;}
</style>
<path class="st0" d="M779.9,331.5c8.7,20.2,23.2,84.4,39.7,111.4c10.2,16.8,14.1,48.7,20.9,68.6c9.5,28,4.1,89.8-9.8,120.4
	c-20.4,45-19.7,25.4-38.8,49.9c-25.8,25.2-29.2,28.1-84.7,44.6c-25.6,1.9-48.1,3.4-73.1,7c-26.1,3.7-44.3,8.8-67.3,15.4
	c-102.7,34.1-100.7,52-123.4,49.2c-9.8-1.2-35.3-11.6-62.9-27.9c-11.6-5.2-63.4-17.2-76.1-20.3c-54.7-13.2-57.2-7.3-99.9-18.1
	c-54.4-13.8-44.2-8-87.1-37.1c-10.5-10.4-40.1-30.9-47-44.6C45.6,603.6,35.5,571,49.8,507.1c17-52.8,20.7-69.1,33.7-106.6
	c8.4-34.3,14.6-40.5,21.5-76.4c1.8-9.6,5.6-28.1,5.6-38.3c231.4,0,432.5-0.7,663.9-0.7C773.4,299,779.9,315.1,779.9,331.5z"/>
<path class="st0" d="M600.4,74.6c51.8,0,37.2-3.5,88.2-18.5c23-6.8,20.8-19.3,45.8-25.3C742,29,832.7,119,841.5,132
	c-2.7,10.2-18.3,35.9-24.6,44.4c-7.6,12.2-43.1,98.1-32.6,93.8l-674.9-0.5L45.5,130.3c10.4-8.4,29.3-27,39.6-35.1
	c24.7-19.5,55.9-63.4,68.3-59.9c32.2,9.4,72.7,36.1,120.5,43.3c57.8-5.8,59.2-6.6,115.6-25.9c21.3-6.5,33.1-11.2,54.7-23.3
	C482.4,49.1,542.7,74.6,600.4,74.6z"/>
<path class="st1" d="M494.6,369c0,40.2-51,19.2-118,45.6c-9.3,3.7-6.4-4.5-13.4-1.8c7.3-6,9.3-9,16.8-14.8
	c17.7-13.6,63.1-47.7,93-47.7C485.9,350.3,494.6,356.2,494.6,369z"/>
<path class="st2" d="M223.8,519.7l-1.3-0.3l-50.6-8.4c-0.6,0.5-1.2,1-1.8,1.4c-6.5,4.3-15.2,2.6-19.4-3.8
	c-4.2-6.3-2.3-14.9,4.2-19.2c6.5-4.3,15.2-2.6,19.4,3.8c0.8,1.1,1.3,2.3,1.7,3.6l48.6,8.5l0,0c-0.7-9.9-3.9-19.9-9.9-28.9
	c-4.5-6.9-10.2-12.5-16.6-16.8c-18.5-11.5-38.6-11.7-55.1-4.6c-1.8,0.9-3.6,1.9-5.4,3.1c-25,16.3-31.1,51.1-13.5,77.6
	c17.5,26.5,52.1,34.7,77.1,18.4C213.5,546,221.2,533.5,223.8,519.7L223.8,519.7z M678.6,482.4L714,515c0.8-0.1,1.5-0.2,2.3-0.2
	c7.4,0,13.5,5.6,14.1,12.7c0.3,0.5,0.5,1.2,0.5,2.2c0,8.6-16.6,20.8-26.1,7.2c-3.9-5.6-3.3-7-2.6-8.4c0-0.9,0.1-1.9,0.3-2.7
	c-0.2-0.7-0.6-1.5-1.2-2.5L666.8,491l0,0c-4.9,8.6-7.7,18.7-7.7,29.5c0,8.9,1.9,17.3,5.3,24.8c2.9,6,7,11.7,12.3,16.9
	c5,4.9,10.2,8.6,15.5,11.2l0.1,0l0,0c6.5,2.9,13.6,4.5,21.1,4.5c21.7,0,40.5-13.6,49.1-33.1c2.1-7.8,4-16.1,5-22c0-0.8,0-1.5,0-2.3
	c0-8.4-1.7-16.4-4.8-23.6c-3.7-7.6-9.3-15.5-16.3-21.9c-9.2-7.5-20.7-12-33.1-12c-11.5,0-22.1,3.8-30.9,10.2c-1.5,1.4-5,5.7-6.1,6.7
	C676.6,482,678.1,481,678.6,482.4L678.6,482.4z M301.9,527c0.3-19.4,0.9-22.3,3.2-35.9c3.9-14.7,14.6-37.1,22.2-44
	c-23.9,7.9-55,51-69.1,71.9c-12.3,21.4-8.9,13.2-15.3,29.2l61.1,1C303.6,541.7,302.8,537.4,301.9,527L301.9,527z M423.8,542.9
	c4.2-18,64.1-84.4,64.1-95.5c0-23.4-58.4-21.2-74.8-21.2l2.8,20.6l9.2,2.3c4.5,1.1,6.9,2.1,12,8.3c9.2,11.3,5.6,46.4-25.7,42.3
	c-25.5-3.3-37.1-43.1-9-49.6l-5.7-22.4c-8.7,1.4-15.7,3.1-25.4,7.4c-25.1,15.9-26.1,20.2-38.7,44.8c15.5,10.3,59,55.2,67.4,70.9
	c-16.1,2.6-20,1.3-33.4,2c-31,0-51.2-0.1-51.7-5.6l-3.4-33.6c0-41.6,27.1-76.7,62.7-89.6c34.9-12.6,74.6-9.3,101.4-11.3
	c11.5-0.9,24.3-2.3,36.2-2.5C506.1,435.2,461.7,539.8,423.8,542.9L423.8,542.9z M481.6,373.2c0-11.4-6.3-17.6-17.8-17.6
	c-26.8,0-57.7,25-73.6,37.2c-6.7,5.1-16.1,10.6-21.8,18.6c8.3-2.7,3.1-1.3,10-3.2C439.7,386,481.6,409.1,481.6,373.2L481.6,373.2z
	 M530.4,330.4c4.4-4.6,11.8-11.1,19.5-12c2.9-0.7,7.8-0.2,11.5,0.9c4.8,1.5,8,4.8,9.8,7c2.3,3,6,7.8,6.7,14
	c0.4,3.5-0.7,11.1-3.4,14.7c-4.9,6.2-10.8,5.2-17.7,7l5.6,5.5l67.2,65.4c12,11.2,22.6,20.6,28.8,25.4c15.6-15.4,37-24.8,60.6-24.8
	c47.9,0,86.8,39.1,86.8,87.3c0,40.8-27.9,75.1-65.5,84.7c-1.2,0.4-2.4,0.7-3.9,0.9c-5.6,1.2-11.5,1.8-17.4,1.8
	c-6.5,0-12.8-0.7-18.9-2.1c-5.6-0.8-10.4-2.5-14.7-4.7c-24.8-10.5-43.8-32.3-50.5-59.1c-2.9-9.8-3.3-18.9-2.5-27.2
	c1-15.9,6.3-30.6,14.7-43.1c0.1-0.4,0.3-0.7,0.4-1l-13.8-13.1c-9.7-8.4-21.9-20.2-34.1-32.5l-57-52.9l-2.4-2l-1.6-1.2
	c-1.1-0.6-4.3,0.6-5.3,3.9c0,50.4-35.1,129.6-71.5,165.1c-21.1,20.6-18.5,31.2-56.7,31.2c-40.1,0-69.4-5.3-109.5-5.3h-63.2
	c-5.5,6.7-12,12.7-19.6,17.7c-40.1,26.2-94.2,14.7-120.8-25.6C66,517,75.6,464.9,113,438c7.9-5.8,13.5-9,22.8-11.7
	c36.6-12.3,78.7,1.2,101.2,35.1c5.5,8.3,9.4,17.1,11.7,26.1c1.3,2.5,2.7,5,4.1,7.6c16.5-11,16.7-14.3,21.4-23.9
	c-26.5,0-24.3-7.5-37-21.6c-17.6-23.7-18.2-16.7-19.8-33.4c-0.6-6.4,2.4-7.1,3.1-9.1c37,0,39.4,70.4,96.4,34.8l27.4-23.2
	c16.9-14.8,33.1-33.4,50.5-45.8c22.7-17.9,71.9-48.2,101.2-23.9c17.8,14.8,13.5,32.5,6.7,43.9c-2.7,4.5-8.9,6.8-9.5,9.3l21.4-2.7
	c0.2-1.9,0.5-4.1,0.8-6.6c3-19.3,11.1-54-4.6-72.1c-11.1-11.9-27.1-1.8-51.2,8.2c-7.7,3.2-11.4,6-18.1,9c-10.5,4.6-9.2,3.9-15.1-4.8
	c20.8-10.9,40.4-20.1,63.5-30c3.2-1.4,7.7-2.4,11.2-2.5c2.7-0.1,3.7-0.4,6.3,0c9.1,0.2,12.8,8.2,17,15.8
	C526.7,320.8,527.9,324.1,530.4,330.4z"/>
<path class="st3" d="M62.3,480.1c15.6-54.4,50.8-135,49.8-188.6h661.7c-1.7,113.1,126.8,267.8,28.2,374.8
	c-49.7,53.9-99.7,66.6-171.5,74.1c-34.7,3.6-69.2,11.8-102.5,21.6c-15.7,4.6-30.8,9.8-45.8,16c-7.1,2.9-37,19.4-39.3,19.4
	c-2.1,0-34-16.7-40.5-19.4c-35.7-15-110.8-33.3-147.2-37.3c-71.8-8-121.2-21.1-171.3-74.2C32.2,611.5,43.6,545.4,62.3,480.1
	L62.3,480.1z M153.3,42.2c10.2,5.5,17.8,12.4,29.2,17.9c43.4,20.9,67.3,24.5,117,24.3c27.9-0.1,52.1-8.1,78.2-15.5
	c10.4-3,64.2-27.6,65.3-27.6c3.6,0,82.2,43.4,144.8,43.2c67.4-0.3,89.8-8.1,144.9-42.2c15.8,10.1,37.5,34.7,52.8,47.6l53.2,47.2
	c-9.3,19.5-26,41.6-35.6,62.4c-11.1,24.1-20.1,43.7-26.6,70.3c-138.4,0-668.1,0-667,0c-6.1-24.6-15.5-49-27-71.2
	c-10.4-19.9-26.3-42.9-35-61.3L153.3,42.2L153.3,42.2z M18.1,133.3C37,164.7,58.9,199,73,233.2c21,51.1,20.1,73.2,4,125.4
	c-21.2,68.8-68.5,181.6-49.7,251c20.2,74.8,92.3,127.9,168.3,144.8c22.4,5,46.8,6.5,69.6,9.7c29.7,4.1,129,28.5,151.7,45.4
	c24.9,18.5,26.9,18.9,52.1-0.1c8.1-6.1,16.9-8.7,26.2-12.7c18.6-7.8,40-14.3,59.6-19.3c67.2-17.3,92.6-13.2,135.9-22.7
	c75.6-16.6,148-70.8,168-145.1c18.8-70.1-28.5-181.8-49.7-251c-16-52.2-17.1-74.4,3.9-125.5c14.4-35,35.4-66.8,55.7-99.3L733.9,12.8
	c-10.8,10.7-45.6,31.8-60.3,36.6c-64.8,21-101,16-165.5-3.5c-10.3-3.1-65.1-30.2-65.2-30.2c-4.1,0-77,46.1-147.4,47.1
	C198.4,64,168.3,18.4,150.4,13.9L18.1,133.3z"/>
<path class="st4" d="M733.9,14.3l134.6,121.1c-20.3,32.5-41.3,64.3-55.7,99.3c-21,51.1-19.9,73.3-3.9,125.5
	c21.2,69.2,68.5,180.9,49.7,251c-19.9,74.3-92.3,128.5-168,145.1c-43.2,9.5-68.6,5.3-135.9,22.7c-19.6,5.1-41,11.5-59.6,19.3
	c-9.3,3.9-18.1,6.5-26.2,12.7c-25.3,19-27.2,18.6-52.1,0.1c-22.7-16.9-122-41.2-151.7-45.4c-22.8-3.2-47.3-4.7-69.6-9.7
	c-76-16.9-148.1-70-168.3-144.8c-18.8-69.4,28.5-182.3,49.7-251c16.1-52.3,17-74.3-4-125.4c-14-34.2-36-68.5-54.9-99.9L150.4,15.4
	c17.8,4.5,48,50.1,145.1,48.8c70.4-0.9,143.3-47.1,147.4-47.1c0.1,0,54.9,27.1,65.2,30.2c64.4,19.5,100.7,24.5,165.5,3.5
	C688.3,46.1,723.1,25,733.9,14.3z"/>
<g>
	<path class="st5" d="M175.5,114.4v41.2h-1.7c-3-7.7-5.7-14.2-8.3-19.5c-2.6-5.3-5.7-9.7-9.4-13.4c-3.7-3.7-8.1-5.5-13.1-5.5
		l-8.1-0.4v40.8l4.9-0.3c4.1-0.5,7.2-2.8,9.3-7c2.1-4.2,3.1-9,3.1-14.5h2v46.3h-2c0-5.7-1-10.6-3.1-14.9c-2.1-4.2-5.2-6.6-9.4-7.1
		L135,160v30.6l0.2,5.9c0.2,2.7,0.8,4.7,1.7,5.9c0.9,1.2,2.1,1.9,3.7,2.2c1.5,0.3,2.9,0.4,4.1,0.4c1.2,0,2.4,0.1,3.3,0.2v2H96.3v-2
		c0.9,0,2-0.1,3.2-0.2c1.2-0.1,2.6-0.3,4.1-0.5c1.5-0.2,2.7-0.8,3.5-1.9c0.8-1.1,1.3-2.9,1.5-5.7l0.2-5.9v-60.3l-0.2-5.9
		c-0.2-2.7-0.7-4.6-1.6-5.7c-0.9-1.1-2-1.8-3.6-2c-1.5-0.3-2.9-0.4-4.1-0.4c-1.2,0-2.4-0.1-3.3-0.2v-2H175.5z"/>
	<path class="st5" d="M233.1,200.9c1.7,0,2.8-1.3,3.5-3.8c0.7-2.5,1-5.5,1-9h1.5c0,7.5-1.1,12.4-3.3,14.8c-2.2,2.4-4.2,3.9-6,4.5
		c-1.8,0.6-4,1-6.8,1c-3,0-5.8-0.9-8.1-2.8c-2.4-1.9-3.8-4.4-4.3-7.5c-1.1,3.4-3,6-5.7,7.7c-2.7,1.7-6.1,2.6-10.4,2.6
		c-4.5,0-8.2-1.5-11.1-4.5c-2.8-3-4.3-7.1-4.3-12.4c0-4.2,0.9-7.7,2.7-10.3c1.8-2.6,3.6-4.2,5.4-4.8c1.8-0.6,4.7-1.1,8.5-1.5
		s6.6-0.9,8.4-1.5c1.8-0.6,3.1-1.1,3.9-1.8c0.8-0.6,1.2-1.7,1.2-3.2l-0.1-11.6c0-3.3-0.4-5.7-1.1-7.1c-0.7-1.4-2.2-2.2-4.4-2.2
		c-1.4,0-2.6,0.4-3.5,1.2s-1.4,1.7-1.4,2.9c0,0.9,0.8,2.1,2.3,3.5c1.5,1.4,2.3,3.5,2.3,6.3c0,2.6-1,5-2.9,7c-2,2-5.1,3.1-9.5,3.1
		c-2.4,0-4.5-0.8-6.3-2.4c-1.8-1.6-2.7-3.7-2.7-6.3c0-5.3,2.5-9.5,7.4-12.6c4.9-3.2,10.8-4.7,17.6-4.7c5.8,0,11,1.4,15.9,4.3
		c4.8,2.9,7.2,7.3,7.2,13.2v29.3c0,2.7,0.2,4.8,0.6,6.3C230.8,200.2,231.7,200.9,233.1,200.9z M209.2,197.1v-24.3l-0.3-0.1
		c-0.6,1-1.8,2-3.5,2.9c-1.7,0.9-2.9,1.8-3.6,2.6c-0.7,0.8-1.2,2.5-1.6,4.9c-0.4,2.4-0.6,4.9-0.6,7.4c0,3.8,0.2,6.9,0.7,9.2
		c0.5,2.3,1.6,3.4,3.4,3.4c1.3,0,2.5-0.6,3.5-1.9C208.3,199.9,208.9,198.5,209.2,197.1z"/>
	<path class="st5" d="M244.8,151.7h-7.2v-3.4c2.4-0.8,4.9-2.2,7.6-4.3c2.6-2.1,5.1-4.5,7.5-7.2c2.4-2.8,4.4-5.4,6-8.1
		c1.6-2.6,2.8-5,3.7-7.1h3v25.3h13.8l-1.5,4.8h-12.3v34.6l0.2,6.5c0,3.6,0.7,6.4,2,8.3c1.3,1.9,3,2.8,5.1,2.8c2.7,0,4.7-1.4,6-4.1
		c1.3-2.8,1.9-5.8,1.9-9.2h1.5c0,4.7-1.2,8.9-3.5,12.5c-2.3,3.6-7.3,5.4-15,5.4c-4.9,0-9.3-1.5-13-4.6s-5.7-7.3-5.7-12.8V151.7z"/>
	<path class="st5" d="M287.1,155.5c-0.9-2.1-1.6-3.6-2.1-4.5c-0.6-0.9-1.3-1.5-2.2-1.7l-4.1-0.4v-2h34.7v2h-1.6
		c-0.6,0-1.3,0.1-2.2,0.3c-0.9,0.2-1.3,1.1-1.3,2.6c0,0.7,0.1,1.5,0.4,2.6c0.3,1.1,0.6,2.1,0.9,3.1l8.3,23.7c0.7-2,1.8-5.4,3.4-10
		c1.6-4.6,2.8-8.5,3.7-11.8c0.9-3.2,1.4-5.6,1.4-7c0-1.1-0.2-1.9-0.5-2.3c-0.3-0.4-1.2-0.8-2.6-1l-3.4-0.3v-2h17.9v2
		c-0.4,0-0.9,0-1.3,0.1c-0.5,0-1.3,0.2-2.6,0.4c-1.2,0.3-2.3,1-3.1,2.3c-0.9,1.3-2.4,5.4-4.7,12.5c-2.3,7-4.8,14.5-7.5,22.4
		c-2.7,7.9-5.6,16.1-8.9,24.5c-3.3,8.5-6.4,14.8-9.3,19.1c-2.9,4.2-6.7,6.4-11.5,6.4c-2.8,0-5.4-1.1-7.8-3.4
		c-2.4-2.3-3.6-5.3-3.6-8.9c0-3.4,1-6.3,2.9-8.6c1.9-2.4,4.4-3.6,7.4-3.6c3.1,0,5.4,1.1,7.1,3.2c1.7,2.1,2.6,4.6,2.6,7.5
		c0,2.9-0.7,5.2-2,7c-1.3,1.8-2,2.8-2,3.2c0.6-0.1,1.3-0.2,2-0.3c1.5-0.8,3-2.5,4.5-4.8c1.4-2.4,2.7-4.8,3.8-7.4
		c1.1-2.5,2.3-5.6,3.6-9c-1.6-4.4-3.5-9.9-5.8-16.3c-2.3-6.5-4.9-13.6-7.7-21.4C291,165.8,288.7,159.8,287.1,155.5z"/>
	<path class="st5" d="M407.7,208.7c-12.2,0-22.2-4.5-30-13.5c-7.8-9-11.7-20.5-11.7-34.3c0-14.2,3.9-25.7,11.6-34.5
		c7.8-8.9,17.8-13.3,30-13.3c5.2,0,9.8,1.1,13.6,3.2l11.3,7.6c2.1,0,3.5-0.9,4.3-2.6c0.7-1.7,1.2-4.2,1.5-7.4h2.1V154h-1.8
		c-3.1-10.3-5.3-17.3-6.6-21c-1.3-3.6-3.5-7.2-6.5-10.6c-3-3.4-6.9-5.1-11.7-5.1c-6.2,0-10.7,4.2-13.7,12.5c-3,8.3-4.5,18-4.5,29.1
		c0,12,1.8,22.3,5.4,31.1c3.6,8.8,8.8,13.2,15.8,13.2c6.4,0,11.6-2.8,15.5-8.4c3.9-5.6,6.5-12.9,7.8-21.9l1.8,0.4
		c-1,10.2-4.2,18.6-9.7,25.3C426.6,205.3,418.5,208.7,407.7,208.7z"/>
	<path class="st5" d="M503.9,177c0,9-2.9,16.5-8.6,22.4c-5.7,6-12.4,9-20.1,9c-8.1,0-15-3-20.5-9c-5.5-6-8.2-13.5-8.2-22.4
		c0-9,2.8-16.5,8.3-22.4c5.6-6,12.3-9,20.3-9c7.9,0,14.6,3,20.2,8.9C501.1,160.4,503.9,167.9,503.9,177z M482.7,176.9
		c0-1.2-0.1-3.6-0.2-7.1c-0.1-3.6-0.2-5.7-0.2-6.4c0-4.6-0.6-8.4-1.8-11.3c-1.2-3-3-4.5-5.5-4.5c-2.3,0-4,1.5-5.2,4.6
		c-1.2,3.1-1.8,6.8-1.8,11.1c0,1.6-0.1,3.6-0.2,5.9c-0.1,2.3-0.2,4.9-0.3,7.6c0,1.2,0.1,3.6,0.2,7.3c0.1,3.7,0.2,5.8,0.2,6.4
		c0,4.6,0.6,8.4,1.8,11.3c1.2,3,3,4.5,5.4,4.5c2.3,0,4.1-1.5,5.3-4.6c1.2-3.1,1.8-6.8,1.8-11.2c0-1.7,0-3.7,0.1-6
		C482.5,182.2,482.6,179.7,482.7,176.9z"/>
	<path class="st5" d="M547.5,165.3l-0.1-5.2c0-6.6-1.9-9.9-5.8-9.9c-2.5,0-4.2,0.9-5.2,2.8c-1,1.9-1.8,3.8-2.5,5.7v32.6l0.1,5.9
		c0,3.5,0.3,5.7,0.8,6.6c0.5,0.9,2.1,1.4,4.7,1.4v2h-33.1v-2l2.6-0.1c2.1-0.3,3.3-0.8,3.7-1.8c0.4-0.9,0.6-3,0.6-6.1l0.1-5.9v-30.4
		l-0.1-5.2c-0.1-2-0.4-3.6-0.6-4.6c-0.3-1-1.6-1.7-3.8-1.9l-2.4-0.3v-2h27.1v9.5c0.8-2.4,2.2-4.8,4.2-7.2c2-2.4,5.9-3.6,11.7-3.6
		c5,0,9.4,1.7,13.1,5.1c3.7,3.4,5.5,7.4,5.5,12v28.6l0.1,5.9c0,3.1,0.2,5.1,0.6,6c0.4,1,1.7,1.6,3.7,1.8l2.3,0.1v2H542v-2
		c2.5,0,4.1-0.5,4.6-1.5c0.6-1,0.8-3.2,0.8-6.5l0.1-5.9V165.3z"/>
	<path class="st5" d="M608.2,147.6c-2,0-3.6,0.9-5,2.8c-1.3,1.9-2.4,4.2-3.1,6.9c-0.7,2.7-1.3,5.7-1.6,8.8c-0.3,3.2-0.5,6.3-0.5,9.2
		c0,7.7,1.1,14.4,3.3,20.2c2.2,5.7,6,8.6,11.5,8.6c3.9,0,7.3-1.5,10.2-4.4c2.9-2.9,5.1-6.6,6.6-11.1l1.6,1
		c-4.8,12.5-13.3,18.8-25.5,18.8c-8.1,0-15-2.9-20.7-8.6c-5.7-5.7-8.5-13.3-8.5-22.7c0-9.5,2.8-17.1,8.4-22.9
		c5.6-5.8,12.5-8.6,20.8-8.6c3.1,0,6,0.4,8.6,1.2c2.6,0.8,5.1,1.9,7.4,3.3c2.3,1.4,4.5,3.4,6.6,6c2.1,2.6,3.1,5.6,3.1,9.1
		c0,3.1-0.8,5.7-2.5,7.6c-1.6,1.9-4.1,2.9-7.3,2.9c-2.8,0-5.3-1.2-7.5-3.5c-2.2-2.3-3.4-5-3.4-7.9c0-2.3,0.4-4.5,1.2-6.6
		c0.8-2.1,1.2-3.9,1.2-5.3c0-1.4-0.4-2.5-1.3-3.3C611,148.1,609.8,147.6,608.2,147.6z"/>
	<path class="st5" d="M687,188.1c-2,6.4-5.2,11.3-9.6,14.9c-4.4,3.6-9.6,5.4-15.5,5.4c-8.4,0-15.3-2.8-20.7-8.3
		c-5.4-5.6-8.1-13.2-8.1-23.1c0-9.2,2.8-16.7,8.4-22.6c5.6-5.9,12.3-8.8,20.1-8.8c8.2,0,14.4,2.8,18.7,8.3
		c4.3,5.5,6.5,12.3,6.5,20.2h-32.6c0,3.1,0.2,6.2,0.6,9.3c0.4,3.2,1.1,6.3,2.2,9.2c1.1,3,2.6,5.4,4.6,7.2c2,1.8,4.5,2.7,7.5,2.7
		c4.3,0,7.8-1.5,10.3-4.4c2.5-2.9,4.5-6.6,5.8-11L687,188.1z M668.1,171.5c-0.1-0.9-0.1-2-0.2-3.3s-0.1-2.9-0.1-4.8
		c0-5.2-0.5-9.1-1.6-11.8c-1.1-2.7-2.9-4-5.5-4c-2.3,0-3.8,1.3-4.7,3.9c-0.9,2.6-1.5,6.5-1.8,11.9l-0.2,8.1H668.1z"/>
	<path class="st5" d="M686.6,236.5v-2l3.7-0.3c2.1-0.3,3.4-0.8,3.9-1.6c0.6-0.8,0.9-2.4,0.9-4.9l0.1-5.2v-61.7l-0.1-5.2
		c0-2.4-0.3-4-0.9-4.8c-0.6-0.8-1.9-1.4-4-1.7l-3.4-0.3v-2h28.7v7.5c0.8-1.9,2-3.9,3.8-5.9c1.7-1.9,5-2.9,9.8-2.9
		c6.8,0,12.3,2.8,16.5,8.5c4.2,5.7,6.4,13.4,6.4,23.1c0,9.4-2.1,17-6.4,22.6c-4.3,5.7-9.8,8.5-16.6,8.5c-4.9,0-8.2-0.8-9.8-2.4
		c-1.6-1.6-2.8-3.3-3.6-5.1l0.1,7.5v12.1l0.2,5.9c0.2,2.9,0.7,4.8,1.4,5.8c0.7,1,2.2,1.6,4.4,2l5.1,0.4v2H686.6z M716.1,198.4
		c0.3,2.1,1.1,3.7,2.4,4.8c1.3,1.1,2.8,1.7,4.4,1.7c2.2,0,3.8-1.3,4.9-3.8c1.1-2.5,1.8-5.3,2.1-8.4c0.3-3.1,0.5-5.8,0.6-8.1
		c0.1-2.4,0.2-5,0.2-7.8v-8.3c-0.2-2.5-0.4-5-0.7-7.7c-0.2-2.7-0.9-5.3-2.1-7.8c-1.1-2.5-2.8-3.8-5.2-3.8c-1.4,0-2.8,0.7-4.1,2.2
		c-1.3,1.5-2.1,3.3-2.4,5.4c-0.1,2-0.2,4.7-0.3,7.9c-0.1,3.3-0.1,6.5-0.1,9.7v14C715.7,192.5,715.8,195.8,716.1,198.4z"/>
	<path class="st5" d="M760.6,151.7h-7.2v-3.4c2.4-0.8,4.9-2.2,7.6-4.3c2.6-2.1,5.1-4.5,7.5-7.2c2.4-2.8,4.4-5.4,6-8.1
		c1.6-2.6,2.8-5,3.7-7.1h3v25.3h13.8l-1.5,4.8h-12.3v34.6l0.2,6.5c0,3.6,0.7,6.4,2,8.3c1.3,1.9,3,2.8,5.1,2.8c2.7,0,4.7-1.4,6-4.1
		c1.3-2.8,1.9-5.8,1.9-9.2h1.5c0,4.7-1.2,8.9-3.5,12.5c-2.3,3.6-7.3,5.4-15,5.4c-4.9,0-9.3-1.5-13-4.6s-5.7-7.3-5.7-12.8V151.7z"/>
</g>
<g>
	<path class="st5" d="M129.9,625.5c0-1,0.3-1.9,1-2.8c0.7-0.8,1-1.4,1-1.8c0-0.5-0.1-0.8-0.4-1.1c-0.3-0.2-0.7-0.4-1.2-0.4
		c-1.1,0-2,0.8-2.5,2.4c-0.5,1.6-0.8,3.6-0.8,6l-0.1,6.2h5.6l-0.8,2.2h-4.7v18.3l0,2.7c0,1.4,0.1,2.3,0.3,2.8
		c0.2,0.4,0.8,0.7,1.7,0.9l1.7,0.1v0.9h-16.5v-0.9l1.2-0.1c1-0.1,1.5-0.4,1.7-0.8c0.2-0.4,0.3-1.4,0.3-2.8l0-2.7v-18.3h-3.6l0.8-2.2
		h2.8c0-0.8,0-1.6,0.1-2.5c0-0.9,0.1-1.5,0.1-1.9c0-2.8,1.3-5.4,4-7.7c2.7-2.3,5.7-3.5,9.1-3.5c2.2,0,4.2,0.6,5.9,1.7
		c1.7,1.1,2.5,2.8,2.5,5c0,1.4-0.5,2.6-1.5,3.6c-1,1-2.1,1.4-3.2,1.4s-2.2-0.4-3.1-1.3C130.4,628.1,129.9,626.9,129.9,625.5z"/>
	<path class="st5" d="M157.6,659.1c0.8,0,1.3-0.6,1.6-1.7c0.3-1.2,0.5-2.6,0.5-4.2h0.7c0,3.5-0.5,5.8-1.6,6.9c-1,1.1-2,1.8-2.8,2.1
		c-0.8,0.3-1.9,0.4-3.1,0.4c-1.4,0-2.7-0.4-3.8-1.3c-1.1-0.9-1.8-2-2-3.5c-0.5,1.6-1.4,2.8-2.6,3.6c-1.2,0.8-2.8,1.2-4.8,1.2
		c-2.1,0-3.8-0.7-5.1-2.1c-1.3-1.4-2-3.3-2-5.7c0-2,0.4-3.6,1.2-4.8c0.8-1.2,1.7-1.9,2.5-2.2c0.9-0.3,2.2-0.5,3.9-0.7
		c1.8-0.2,3.1-0.4,3.9-0.7c0.8-0.3,1.4-0.5,1.8-0.8c0.4-0.3,0.5-0.8,0.5-1.5l0-5.4c0-1.5-0.2-2.6-0.5-3.3c-0.3-0.7-1-1-2-1
		c-0.6,0-1.2,0.2-1.6,0.5c-0.4,0.4-0.7,0.8-0.7,1.4c0,0.4,0.3,1,1,1.6c0.7,0.7,1,1.6,1,2.9c0,1.2-0.5,2.3-1.4,3.3
		c-0.9,0.9-2.4,1.4-4.4,1.4c-1.1,0-2.1-0.4-2.9-1.1c-0.8-0.7-1.3-1.7-1.3-2.9c0-2.4,1.1-4.4,3.4-5.9c2.3-1.5,5-2.2,8.2-2.2
		c2.7,0,5.1,0.7,7.3,2c2.2,1.3,3.4,3.4,3.4,6.1v13.6c0,1.3,0.1,2.2,0.3,2.9C156.5,658.8,156.9,659.1,157.6,659.1z M146.5,657.4
		v-11.3l-0.1-0.1c-0.3,0.5-0.8,0.9-1.6,1.3c-0.8,0.4-1.3,0.8-1.7,1.2c-0.3,0.4-0.6,1.1-0.7,2.3c-0.2,1.1-0.3,2.3-0.3,3.4
		c0,1.8,0.1,3.2,0.3,4.2c0.2,1.1,0.7,1.6,1.6,1.6c0.6,0,1.2-0.3,1.6-0.9C146.1,658.7,146.4,658,146.5,657.4z"/>
	<path class="st5" d="M163,636.3h-3.3v-1.6c1.1-0.4,2.3-1,3.5-2c1.2-1,2.4-2.1,3.5-3.4c1.1-1.3,2-2.5,2.8-3.7
		c0.7-1.2,1.3-2.3,1.7-3.3h1.4v11.7h6.4l-0.7,2.2h-5.7v16l0.1,3c0,1.7,0.3,3,0.9,3.8c0.6,0.9,1.4,1.3,2.3,1.3c1.3,0,2.2-0.6,2.8-1.9
		c0.6-1.3,0.9-2.7,0.9-4.3h0.7c0,2.2-0.5,4.1-1.6,5.8c-1.1,1.7-3.4,2.5-6.9,2.5c-2.3,0-4.3-0.7-6-2.1c-1.7-1.4-2.6-3.4-2.6-5.9
		V636.3z"/>
	<path class="st5" d="M182.6,638.1c-0.4-1-0.7-1.7-1-2.1c-0.3-0.4-0.6-0.7-1-0.8l-1.9-0.2v-0.9h16.1v0.9H194c-0.3,0-0.6,0-1,0.1
		c-0.4,0.1-0.6,0.5-0.6,1.2c0,0.3,0.1,0.7,0.2,1.2c0.1,0.5,0.3,1,0.4,1.4l3.8,11c0.3-0.9,0.9-2.5,1.6-4.6c0.7-2.1,1.3-4,1.7-5.4
		c0.4-1.5,0.6-2.6,0.6-3.2c0-0.5-0.1-0.9-0.2-1.1c-0.1-0.2-0.5-0.4-1.2-0.5l-1.6-0.1v-0.9h8.3v0.9c-0.2,0-0.4,0-0.6,0
		c-0.2,0-0.6,0.1-1.2,0.2c-0.6,0.1-1.1,0.5-1.5,1.1s-1.1,2.5-2.2,5.8c-1.1,3.3-2.2,6.7-3.5,10.4c-1.2,3.7-2.6,7.4-4.1,11.4
		c-1.5,3.9-3,6.9-4.3,8.8c-1.3,2-3.1,2.9-5.3,2.9c-1.3,0-2.5-0.5-3.6-1.6c-1.1-1.1-1.7-2.4-1.7-4.1c0-1.6,0.4-2.9,1.3-4
		c0.9-1.1,2-1.6,3.4-1.6c1.4,0,2.5,0.5,3.3,1.5c0.8,1,1.2,2.1,1.2,3.5c0,1.3-0.3,2.4-0.9,3.2c-0.6,0.8-0.9,1.3-0.9,1.5
		c0.3,0,0.6-0.1,0.9-0.1c0.7-0.4,1.4-1.1,2.1-2.2c0.7-1.1,1.3-2.2,1.8-3.4s1.1-2.6,1.7-4.2c-0.7-2-1.6-4.6-2.7-7.6
		c-1.1-3-2.2-6.3-3.5-9.9C184.4,642.9,183.4,640.1,182.6,638.1z"/>
	<path class="st5" d="M219.8,634.5c-0.9,0-1.7,0.4-2.3,1.3c-0.6,0.9-1.1,1.9-1.5,3.2c-0.3,1.3-0.6,2.6-0.7,4.1s-0.2,2.9-0.2,4.3
		c0,3.6,0.5,6.7,1.5,9.3c1,2.7,2.8,4,5.3,4c1.8,0,3.4-0.7,4.7-2s2.4-3.1,3.1-5.2l0.7,0.5c-2.2,5.8-6.1,8.7-11.8,8.7
		c-3.7,0-6.9-1.3-9.6-4c-2.6-2.7-3.9-6.2-3.9-10.5c0-4.4,1.3-7.9,3.9-10.6c2.6-2.7,5.8-4,9.6-4c1.4,0,2.8,0.2,4,0.6
		c1.2,0.4,2.4,0.9,3.4,1.5c1.1,0.6,2.1,1.6,3.1,2.8c1,1.2,1.5,2.6,1.5,4.2c0,1.5-0.4,2.6-1.1,3.5s-1.9,1.3-3.4,1.3
		c-1.3,0-2.4-0.5-3.5-1.6c-1-1.1-1.6-2.3-1.6-3.7c0-1.1,0.2-2.1,0.5-3.1c0.4-1,0.5-1.8,0.5-2.5c0-0.6-0.2-1.1-0.6-1.5
		C221.1,634.7,220.5,634.5,219.8,634.5z"/>
	<path class="st5" d="M257.9,648.1c0,4.2-1.3,7.6-4,10.4c-2.6,2.8-5.8,4.2-9.3,4.2c-3.8,0-6.9-1.4-9.5-4.2
		c-2.5-2.8-3.8-6.2-3.8-10.4c0-4.2,1.3-7.6,3.9-10.4c2.6-2.8,5.7-4.2,9.4-4.2c3.6,0,6.8,1.4,9.4,4.1
		C256.6,640.4,257.9,643.9,257.9,648.1z M248.1,648c0-0.5,0-1.6-0.1-3.3c-0.1-1.6-0.1-2.6-0.1-2.9c0-2.1-0.3-3.9-0.8-5.2
		c-0.5-1.4-1.4-2.1-2.5-2.1c-1.1,0-1.9,0.7-2.4,2.2c-0.6,1.4-0.8,3.2-0.8,5.2c0,0.7,0,1.7-0.1,2.7c0,1.1-0.1,2.2-0.1,3.5
		c0,0.5,0,1.7,0.1,3.4c0.1,1.7,0.1,2.7,0.1,3c0,2.1,0.3,3.9,0.8,5.2c0.5,1.4,1.4,2.1,2.5,2.1c1.1,0,1.9-0.7,2.5-2.1
		c0.6-1.4,0.8-3.1,0.8-5.2c0-0.8,0-1.7,0-2.8C248,650.5,248,649.3,248.1,648z"/>
	<path class="st5" d="M278.1,642.6l0-2.4c0-3.1-0.9-4.6-2.7-4.6c-1.1,0-1.9,0.4-2.4,1.3c-0.5,0.9-0.9,1.7-1.1,2.7v15.1l0,2.7
		c0,1.6,0.1,2.6,0.4,3.1c0.2,0.4,1,0.6,2.2,0.6v0.9h-15.3v-0.9l1.2-0.1c1-0.1,1.5-0.4,1.7-0.8c0.2-0.4,0.3-1.4,0.3-2.8l0-2.7v-14.1
		l0-2.4c-0.1-0.9-0.2-1.6-0.3-2.1c-0.1-0.5-0.7-0.8-1.8-0.9l-1.1-0.1v-0.9h12.6v4.4c0.4-1.1,1-2.2,1.9-3.3s2.7-1.7,5.4-1.7
		c2.3,0,4.3,0.8,6.1,2.4c1.7,1.6,2.6,3.4,2.6,5.5v13.3l0,2.7c0,1.4,0.1,2.3,0.3,2.8s0.8,0.7,1.7,0.9l1.1,0.1v0.9h-15.2v-0.9
		c1.2,0,1.9-0.2,2.1-0.7c0.3-0.5,0.4-1.5,0.4-3l0-2.7V642.6z"/>
	<path class="st5" d="M306.2,634.5c-0.9,0-1.7,0.4-2.3,1.3c-0.6,0.9-1.1,1.9-1.5,3.2c-0.3,1.3-0.6,2.6-0.7,4.1s-0.2,2.9-0.2,4.3
		c0,3.6,0.5,6.7,1.5,9.3c1,2.7,2.8,4,5.3,4c1.8,0,3.4-0.7,4.7-2s2.4-3.1,3.1-5.2l0.7,0.5c-2.2,5.8-6.1,8.7-11.8,8.7
		c-3.7,0-6.9-1.3-9.6-4c-2.6-2.7-3.9-6.2-3.9-10.5c0-4.4,1.3-7.9,3.9-10.6c2.6-2.7,5.8-4,9.6-4c1.4,0,2.8,0.2,4,0.6
		c1.2,0.4,2.4,0.9,3.4,1.5c1.1,0.6,2.1,1.6,3.1,2.8c1,1.2,1.5,2.6,1.5,4.2c0,1.5-0.4,2.6-1.1,3.5s-1.9,1.3-3.4,1.3
		c-1.3,0-2.4-0.5-3.5-1.6c-1-1.1-1.6-2.3-1.6-3.7c0-1.1,0.2-2.1,0.5-3.1c0.4-1,0.5-1.8,0.5-2.5c0-0.6-0.2-1.1-0.6-1.5
		C307.5,634.7,307,634.5,306.2,634.5z"/>
	<path class="st5" d="M342.7,653.2c-0.9,2.9-2.4,5.3-4.4,6.9c-2,1.7-4.4,2.5-7.2,2.5c-3.9,0-7.1-1.3-9.6-3.9
		c-2.5-2.6-3.7-6.1-3.7-10.7c0-4.2,1.3-7.7,3.9-10.5c2.6-2.7,5.7-4.1,9.3-4.1c3.8,0,6.7,1.3,8.7,3.8c2,2.6,3,5.7,3,9.4h-15.1
		c0,1.4,0.1,2.9,0.3,4.3s0.5,2.9,1,4.3c0.5,1.4,1.2,2.5,2.1,3.3c0.9,0.8,2.1,1.3,3.5,1.3c2,0,3.6-0.7,4.8-2c1.2-1.4,2.1-3.1,2.7-5.1
		L342.7,653.2z M334,645.5c0-0.4-0.1-0.9-0.1-1.5s0-1.3,0-2.2c0-2.4-0.2-4.2-0.7-5.4c-0.5-1.2-1.3-1.9-2.5-1.9c-1,0-1.8,0.6-2.2,1.8
		c-0.4,1.2-0.7,3-0.9,5.5l-0.1,3.8H334z"/>
	<path class="st5" d="M342.6,675.6v-0.9l1.7-0.1c1-0.1,1.6-0.4,1.8-0.7c0.3-0.4,0.4-1.1,0.4-2.3l0-2.4v-28.6l0-2.4
		c0-1.1-0.1-1.8-0.4-2.2c-0.3-0.4-0.9-0.6-1.8-0.8l-1.6-0.1v-0.9h13.3v3.5c0.4-0.9,0.9-1.8,1.7-2.7c0.8-0.9,2.3-1.4,4.5-1.4
		c3.1,0,5.7,1.3,7.7,3.9c2,2.6,2.9,6.2,2.9,10.7c0,4.4-1,7.9-3,10.5c-2,2.6-4.5,3.9-7.7,3.9c-2.3,0-3.8-0.4-4.5-1.1
		c-0.7-0.7-1.3-1.5-1.7-2.4l0,3.5v5.6l0.1,2.7c0.1,1.3,0.3,2.2,0.7,2.7c0.3,0.5,1,0.8,2,0.9l2.3,0.2v0.9H342.6z M356.2,658
		c0.1,1,0.5,1.7,1.1,2.2c0.6,0.5,1.3,0.8,2,0.8c1,0,1.8-0.6,2.3-1.8c0.5-1.2,0.8-2.5,1-3.9c0.1-1.4,0.2-2.7,0.3-3.8
		c0-1.1,0.1-2.3,0.1-3.6v-3.8c-0.1-1.1-0.2-2.3-0.3-3.6c-0.1-1.2-0.4-2.4-1-3.6c-0.5-1.2-1.3-1.7-2.4-1.7c-0.7,0-1.3,0.3-1.9,1
		c-0.6,0.7-1,1.5-1.1,2.5c-0.1,0.9-0.1,2.2-0.1,3.7c0,1.5,0,3,0,4.5v6.5C356,655.2,356.1,656.7,356.2,658z"/>
	<path class="st5" d="M376.8,636.3h-3.3v-1.6c1.1-0.4,2.3-1,3.5-2c1.2-1,2.4-2.1,3.5-3.4c1.1-1.3,2-2.5,2.8-3.7
		c0.7-1.2,1.3-2.3,1.7-3.3h1.4v11.7h6.4l-0.7,2.2h-5.7v16l0.1,3c0,1.7,0.3,3,0.9,3.8c0.6,0.9,1.4,1.3,2.3,1.3c1.3,0,2.2-0.6,2.8-1.9
		c0.6-1.3,0.9-2.7,0.9-4.3h0.7c0,2.2-0.5,4.1-1.6,5.8c-1.1,1.7-3.4,2.5-6.9,2.5c-2.3,0-4.3-0.7-6-2.1c-1.7-1.4-2.6-3.4-2.6-5.9
		V636.3z"/>
	<path class="st5" d="M395.2,656.8c0-1.6,0.5-2.9,1.4-4c1-1.1,2.1-1.6,3.4-1.6c1.3,0,2.5,0.5,3.5,1.6c1,1.1,1.5,2.4,1.5,4
		c0,1.6-0.5,3-1.4,4.1c-1,1.1-2.1,1.6-3.5,1.6c-1.3,0-2.5-0.5-3.4-1.6C395.6,659.8,395.2,658.4,395.2,656.8z"/>
	<path class="st5" d="M432.9,659.1c0.8,0,1.3-0.6,1.6-1.7c0.3-1.2,0.5-2.6,0.5-4.2h0.7c0,3.5-0.5,5.8-1.5,6.9s-2,1.8-2.8,2.1
		c-0.8,0.3-1.9,0.4-3.1,0.4c-1.4,0-2.7-0.4-3.8-1.3c-1.1-0.9-1.8-2-2-3.5c-0.5,1.6-1.4,2.8-2.6,3.6c-1.2,0.8-2.8,1.2-4.8,1.2
		c-2.1,0-3.8-0.7-5.1-2.1c-1.3-1.4-2-3.3-2-5.7c0-2,0.4-3.6,1.2-4.8c0.8-1.2,1.7-1.9,2.5-2.2s2.2-0.5,3.9-0.7s3.1-0.4,3.9-0.7
		c0.8-0.3,1.4-0.5,1.8-0.8c0.4-0.3,0.5-0.8,0.5-1.5l0-5.4c0-1.5-0.2-2.6-0.5-3.3c-0.3-0.7-1-1-2-1c-0.6,0-1.2,0.2-1.6,0.5
		c-0.4,0.4-0.7,0.8-0.7,1.4c0,0.4,0.3,1,1,1.6c0.7,0.7,1,1.6,1,2.9c0,1.2-0.5,2.3-1.4,3.3c-0.9,0.9-2.4,1.4-4.4,1.4
		c-1.1,0-2.1-0.4-2.9-1.1c-0.8-0.7-1.3-1.7-1.3-2.9c0-2.4,1.1-4.4,3.4-5.9c2.3-1.5,5-2.2,8.2-2.2c2.7,0,5.1,0.7,7.3,2
		c2.2,1.3,3.4,3.4,3.4,6.1v13.6c0,1.3,0.1,2.2,0.3,2.9C431.8,658.8,432.2,659.1,432.9,659.1z M421.8,657.4v-11.3l-0.1-0.1
		c-0.3,0.5-0.8,0.9-1.6,1.3c-0.8,0.4-1.3,0.8-1.7,1.2s-0.6,1.1-0.7,2.3s-0.3,2.3-0.3,3.4c0,1.8,0.1,3.2,0.3,4.2
		c0.2,1.1,0.7,1.6,1.6,1.6c0.6,0,1.2-0.3,1.6-0.9C421.4,658.7,421.7,658,421.8,657.4z"/>
	<path class="st5" d="M451.5,662h-16v-0.9l1.2-0.1c1-0.1,1.5-0.4,1.7-0.8c0.2-0.4,0.3-1.4,0.3-2.8l0-2.7v-14.1l0-2.4
		c-0.1-0.9-0.2-1.6-0.3-2.1c-0.1-0.5-0.7-0.8-1.8-0.9l-1.3-0.1v-0.9h12.9v20.6l0,2.7c0,1.4,0.1,2.3,0.3,2.8s0.8,0.7,1.7,0.9l1.2,0.1
		V662z M438.6,624.3c0-1.5,0.5-2.8,1.4-3.9c0.9-1.1,2.1-1.6,3.4-1.6c1.4,0,2.5,0.5,3.4,1.6c0.9,1,1.4,2.4,1.4,4c0,1.6-0.5,2.9-1.4,4
		c-0.9,1.1-2.1,1.6-3.4,1.6c-1.3,0-2.4-0.5-3.4-1.6C439,627.2,438.6,625.8,438.6,624.3z"/>
	<path class="st5" d="M461.7,650.4l-5.9-11.8c-0.7-1.3-1.2-2.2-1.6-2.6s-0.9-0.7-1.6-0.8l-1.4-0.1v-0.9h16.6v0.9l-1.3,0.1
		c-0.5,0-0.8,0.1-1,0.2c-0.2,0.1-0.3,0.4-0.3,0.8c0,0.2,0,0.4,0.1,0.7c0,0.3,0.2,0.7,0.5,1.3l2.5,5.1l3.1-4.8c0.6-1,0.8-1.7,0.8-2.2
		c0-0.7-0.4-1.1-1.2-1.1l-1.1-0.1v-0.9h8.2v0.9h-0.5c-0.2,0-0.6,0-1.1,0.1c-0.5,0.1-0.9,0.2-1.4,0.5c-0.4,0.3-1.1,1-2.1,2.3
		l-4.3,6.2l6.6,13.3c0.7,1.4,1.3,2.3,1.6,2.7c0.4,0.4,0.9,0.6,1.6,0.8l1,0.1v0.9h-16.3v-0.9l1.3-0.1c0.8-0.1,1.2-0.5,1.2-1.2
		c0-0.4-0.2-1-0.5-1.9l-3.2-6.6l-4.1,6.3c-0.6,1-0.8,1.7-0.8,2.2c0,0.7,0.4,1.1,1.2,1.2l1.3,0.1v0.9H451v-0.9l1.5-0.1
		c0.9-0.2,1.6-0.4,2.1-0.8c0.5-0.4,1-1,1.6-1.8s1.4-2,2.4-3.5C459.7,653.4,460.7,651.9,461.7,650.4z"/>
	<path class="st5" d="M523.6,642.7c0-4.3-1.1-8.1-3.4-11.3c-2.3-3.2-6.4-4.8-12.5-4.8c-5.8,0-10.8,2.7-15.1,8
		c-4.3,5.3-6.4,11.5-6.4,18.6c0,6.4,1.6,11.3,4.7,14.7s7,5.2,11.6,5.2c2.7,0,5.3-0.5,7.8-1.5c2.5-1,5.6-3,9.3-6.2l0.4,0.7
		c-2.6,2.6-5.5,4.6-8.5,6.2c-3.1,1.5-6.2,2.3-9.5,2.3c-5.8,0-10.8-1.9-14.8-5.6c-4-3.7-6.1-9.1-6.1-16c0-8.2,2.6-15,7.8-20.6
		c5.2-5.6,11.4-8.4,18.5-8.4c5.2,0,9.4,1.7,12.5,5s4.8,7.7,4.8,13.1c0,3.1-0.5,5.9-1.4,8.3c-0.9,2.5-2.2,4.7-3.9,6.8
		c-1.7,2.1-3.4,3.5-5.2,4.2c-1.8,0.7-3.3,1.1-4.7,1.1c-1.6,0-2.9-0.5-4-1.5c-1.1-1-1.6-2.4-1.6-4.2l-0.2-0.1
		c-1.1,1.9-2.1,3.3-3.2,4.1c-1.1,0.9-2.4,1.3-4.1,1.3c-1.8,0-3.2-0.7-4.4-2c-1.1-1.3-1.7-3.1-1.7-5.3c0-4.2,1.6-8.4,4.8-12.6
		c3.2-4.2,6.8-6.3,10.7-6.3c1,0,1.8,0.3,2.6,0.8c0.7,0.5,1.1,1.4,1.1,2.6c0,0.2,0,0.4,0,0.5h0.2l1.2-3.4h8.7
		c-0.6,1.5-1.3,3.4-2.2,5.7c-0.9,2.3-1.9,5-3.2,8.3c-1.2,3.2-2,5.2-2.2,6c-0.3,0.7-0.4,1.4-0.4,2.1c0,0.6,0.1,1,0.3,1.4
		c0.2,0.3,0.6,0.5,1,0.5c0.9,0,1.9-0.3,2.9-1c1-0.6,2.2-1.9,3.6-3.7c1.4-1.8,2.4-3.7,3.1-5.8S523.6,645.6,523.6,642.7z M508,643.6
		c0.5-1.7,0.7-2.9,0.7-3.8c0-0.5-0.1-1-0.3-1.2c-0.2-0.3-0.5-0.4-1-0.4c-0.5,0-1.1,0.5-1.8,1.4c-0.7,1-1.4,2.2-2,3.7
		c-0.7,1.5-1.2,2.8-1.6,3.8c-0.4,1-0.7,1.7-0.8,2l-2.1,5.8c-0.5,1.3-0.8,2.4-1,3.2c-0.2,0.8-0.3,1.5-0.3,1.9c0,0.3,0.1,0.6,0.2,0.7
		c0.1,0.2,0.3,0.2,0.5,0.2c0.8,0,1.8-0.6,2.8-1.9c1.1-1.2,1.9-2.7,2.6-4.4l2.2-5.5c0.4-1,0.7-2,1.1-3S507.8,644.3,508,643.6z"/>
	<path class="st5" d="M546.3,636.8c0.4-1,0.9-1.8,1.7-2.4c0.8-0.6,1.7-0.9,2.8-0.9c1.1,0,2.1,0.4,2.8,1.1c0.7,0.7,1,1.7,1,2.9
		c0,0.9-0.3,1.7-0.8,2.4c-0.5,0.6-1.2,0.9-2.1,0.9c-0.8,0-1.4-0.3-2-0.8s-0.8-1.3-0.8-2.3c0-0.5,0.1-1.1,0.4-1.6
		c0.3-0.5,0.4-0.9,0.4-1.1c0-0.2-0.1-0.2-0.4-0.2c-0.4,0-0.9,0.2-1.4,0.6s-0.9,1-1.3,1.9c0.6,0.7,1.1,1.7,1.4,2.8
		c0.3,1.1,0.5,2.3,0.5,3.5c0,3-1,5.4-2.9,7.2c-1.9,1.8-4.1,2.7-6.7,2.7c-1.6,0-3.1-0.4-4.6-1.1c-0.7-0.1-1.3,0.1-2,0.4
		c-0.6,0.3-0.9,0.9-0.9,1.7c0,0.5,0.2,1,0.7,1.2c0.5,0.3,1,0.5,1.6,0.5h10.5c2.7,0,4.8,0.9,6.4,2.8c1.6,1.8,2.4,4.1,2.4,6.9
		c0,3.4-1.4,6-4.1,7.6c-2.7,1.6-5.9,2.4-9.5,2.4c-3,0-5.6-0.4-7.8-1.3c-2.2-0.9-3.4-2.4-3.4-4.6c0-1,0.3-1.8,1-2.5
		c0.7-0.6,1.5-1,2.5-1.3c-1.3-0.9-2.3-1.9-3.1-3c-0.7-1.1-1.1-2.5-1.1-4.1c0-2,0.5-3.6,1.6-5c1.1-1.4,2.4-2.2,3.9-2.5
		c-1.2-0.9-2.2-2.1-2.8-3.4c-0.7-1.4-1-2.9-1-4.7c0-3,0.9-5.5,2.8-7.3s4.2-2.8,6.8-2.8C542,633.5,544.4,634.6,546.3,636.8z
		 M532.8,666.8c-0.9,0.2-1.6,0.5-2,1c-0.4,0.5-0.6,1.2-0.6,2.2c0,1.6,1,2.8,2.9,3.6c1.9,0.8,4.1,1.2,6.6,1.2c3.1,0,5.6-0.4,7.5-1.2
		c1.9-0.8,2.9-2.1,2.9-3.9c0-1.1-0.4-1.8-1.3-2.2c-0.9-0.4-2.1-0.5-3.6-0.5H532.8z M541.3,643.5l-0.1-4.3c0-1.5-0.2-2.6-0.5-3.5
		c-0.3-0.9-0.9-1.3-1.7-1.3c-0.8,0-1.3,0.4-1.6,1.3c-0.3,0.9-0.5,2-0.5,3.4l-0.1,4.3l0.1,4.3c0,1.4,0.2,2.5,0.5,3.4s0.9,1.3,1.7,1.3
		s1.3-0.4,1.6-1.3c0.3-0.9,0.5-2,0.5-3.4L541.3,643.5z"/>
	<path class="st5" d="M600,662h-14.8v-0.9c1.1,0,1.8-0.2,2-0.6c0.2-0.4,0.3-1.5,0.3-3.1l0-2.7v-11.9l0-2.4c0-1.7-0.2-2.9-0.5-3.7
		c-0.3-0.7-1-1.1-1.8-1.1c-0.6,0-1.2,0.3-1.9,1c-0.7,0.6-1.1,1.9-1.3,3.8v14.3l0,2.7c0,1.3,0.1,2.2,0.2,2.7c0.1,0.6,0.7,0.9,1.9,1
		v0.9h-14v-0.9c1.1,0,1.8-0.2,2-0.6c0.2-0.4,0.3-1.5,0.3-3.1l0-2.7v-11.9l0-2.4c0-1.7-0.2-2.9-0.5-3.7c-0.3-0.7-1-1.1-1.8-1.1
		c-1.1,0-1.9,0.4-2.3,1.3c-0.4,0.9-0.7,1.7-1,2.7v15.1l0,2.7c0,1.3,0.1,2.2,0.2,2.7c0.1,0.6,0.7,0.9,1.9,1v0.9h-14.7v-0.9l1.1-0.1
		c1-0.1,1.5-0.4,1.7-0.8c0.2-0.4,0.3-1.4,0.3-2.8l0-2.7v-14.1l0-2.4c-0.1-0.9-0.2-1.6-0.3-2.1c-0.1-0.5-0.7-0.8-1.8-0.9l-1.1-0.1
		v-0.9h12.5v4.4c0.3-1.1,0.9-2.2,1.7-3.3s2.6-1.7,5.3-1.7c1.8,0,3.4,0.5,4.8,1.4c1.4,0.9,2.4,2.3,3,4.2c0.2-0.7,0.6-1.8,1.3-3.3
		c0.7-1.5,2.7-2.2,6-2.2c2.2,0,4.2,0.7,5.8,2.2c1.6,1.5,2.5,3.4,2.5,5.8v13.1l0,2.7c0,1.5,0.1,2.4,0.3,2.8c0.2,0.4,0.8,0.7,1.7,0.8
		l0.9,0.1V662z"/>
	<path class="st5" d="M626.2,659.1c0.8,0,1.3-0.6,1.6-1.7c0.3-1.2,0.5-2.6,0.5-4.2h0.7c0,3.5-0.5,5.8-1.5,6.9s-2,1.8-2.8,2.1
		c-0.8,0.3-1.9,0.4-3.1,0.4c-1.4,0-2.7-0.4-3.8-1.3c-1.1-0.9-1.8-2-2-3.5c-0.5,1.6-1.4,2.8-2.6,3.6c-1.2,0.8-2.8,1.2-4.8,1.2
		c-2.1,0-3.8-0.7-5.1-2.1c-1.3-1.4-2-3.3-2-5.7c0-2,0.4-3.6,1.2-4.8c0.8-1.2,1.7-1.9,2.5-2.2s2.2-0.5,3.9-0.7s3.1-0.4,3.9-0.7
		c0.8-0.3,1.4-0.5,1.8-0.8c0.4-0.3,0.5-0.8,0.5-1.5l0-5.4c0-1.5-0.2-2.6-0.5-3.3c-0.3-0.7-1-1-2-1c-0.6,0-1.2,0.2-1.6,0.5
		c-0.4,0.4-0.7,0.8-0.7,1.4c0,0.4,0.3,1,1,1.6c0.7,0.7,1,1.6,1,2.9c0,1.2-0.5,2.3-1.4,3.3c-0.9,0.9-2.4,1.4-4.4,1.4
		c-1.1,0-2.1-0.4-2.9-1.1c-0.8-0.7-1.3-1.7-1.3-2.9c0-2.4,1.1-4.4,3.4-5.9c2.3-1.5,5-2.2,8.2-2.2c2.7,0,5.1,0.7,7.3,2
		c2.2,1.3,3.4,3.4,3.4,6.1v13.6c0,1.3,0.1,2.2,0.3,2.9C625.2,658.8,625.6,659.1,626.2,659.1z M615.2,657.4v-11.3l-0.1-0.1
		c-0.3,0.5-0.8,0.9-1.6,1.3c-0.8,0.4-1.3,0.8-1.7,1.2s-0.6,1.1-0.7,2.3s-0.3,2.3-0.3,3.4c0,1.8,0.1,3.2,0.3,4.2
		c0.2,1.1,0.7,1.6,1.6,1.6c0.6,0,1.2-0.3,1.6-0.9C614.7,658.7,615,658,615.2,657.4z"/>
	<path class="st5" d="M644.8,662h-16v-0.9l1.2-0.1c1-0.1,1.5-0.4,1.7-0.8c0.2-0.4,0.3-1.4,0.3-2.8l0-2.7v-14.1l0-2.4
		c-0.1-0.9-0.2-1.6-0.3-2.1c-0.1-0.5-0.7-0.8-1.8-0.9l-1.3-0.1v-0.9h12.9v20.6l0,2.7c0,1.4,0.1,2.3,0.3,2.8s0.8,0.7,1.7,0.9l1.2,0.1
		V662z M631.9,624.3c0-1.5,0.5-2.8,1.4-3.9c0.9-1.1,2.1-1.6,3.4-1.6c1.4,0,2.5,0.5,3.4,1.6c0.9,1,1.4,2.4,1.4,4c0,1.6-0.5,2.9-1.4,4
		c-0.9,1.1-2.1,1.6-3.4,1.6c-1.3,0-2.4-0.5-3.4-1.6C632.4,627.2,631.9,625.8,631.9,624.3z"/>
	<path class="st5" d="M661.5,662h-16v-0.9l1.2-0.1c1-0.1,1.5-0.4,1.7-0.8c0.2-0.4,0.3-1.4,0.3-2.8l0-2.7v-29.1l0-2.4
		c-0.1-0.9-0.2-1.6-0.3-2.1c-0.1-0.5-0.7-0.8-1.8-0.9L645,620v-0.9h13.3v35.6l0,2.7c0,1.4,0.1,2.3,0.3,2.8s0.8,0.7,1.7,0.9l1.2,0.1
		V662z"/>
	<path class="st5" d="M663.5,656.8c0-1.6,0.5-2.9,1.4-4c1-1.1,2.1-1.6,3.4-1.6c1.3,0,2.5,0.5,3.5,1.6c1,1.1,1.5,2.4,1.5,4
		c0,1.6-0.5,3-1.4,4.1c-1,1.1-2.1,1.6-3.5,1.6c-1.3,0-2.5-0.5-3.4-1.6C664,659.8,663.5,658.4,663.5,656.8z"/>
	<path class="st5" d="M690.6,634.5c-0.9,0-1.7,0.4-2.3,1.3c-0.6,0.9-1.1,1.9-1.5,3.2c-0.3,1.3-0.6,2.6-0.7,4.1
		c-0.1,1.5-0.2,2.9-0.2,4.3c0,3.6,0.5,6.7,1.5,9.3c1,2.7,2.8,4,5.3,4c1.8,0,3.4-0.7,4.7-2s2.4-3.1,3.1-5.2l0.7,0.5
		c-2.2,5.8-6.1,8.7-11.8,8.7c-3.7,0-6.9-1.3-9.6-4c-2.6-2.7-3.9-6.2-3.9-10.5c0-4.4,1.3-7.9,3.9-10.6c2.6-2.7,5.8-4,9.6-4
		c1.4,0,2.8,0.2,4,0.6s2.4,0.9,3.4,1.5c1.1,0.6,2.1,1.6,3.1,2.8c1,1.2,1.5,2.6,1.5,4.2c0,1.5-0.4,2.6-1.1,3.5
		c-0.8,0.9-1.9,1.3-3.4,1.3c-1.3,0-2.4-0.5-3.5-1.6s-1.6-2.3-1.6-3.7c0-1.1,0.2-2.1,0.5-3.1c0.4-1,0.5-1.8,0.5-2.5
		c0-0.6-0.2-1.1-0.6-1.5C691.8,634.7,691.3,634.5,690.6,634.5z"/>
	<path class="st5" d="M728.6,648.1c0,4.2-1.3,7.6-4,10.4c-2.6,2.8-5.8,4.2-9.3,4.2c-3.8,0-6.9-1.4-9.5-4.2
		c-2.5-2.8-3.8-6.2-3.8-10.4c0-4.2,1.3-7.6,3.9-10.4c2.6-2.8,5.7-4.2,9.4-4.2c3.6,0,6.8,1.4,9.4,4.1
		C727.3,640.4,728.6,643.9,728.6,648.1z M718.9,648c0-0.5,0-1.6-0.1-3.3c-0.1-1.6-0.1-2.6-0.1-2.9c0-2.1-0.3-3.9-0.8-5.2
		c-0.5-1.4-1.4-2.1-2.5-2.1c-1.1,0-1.9,0.7-2.4,2.2s-0.8,3.2-0.8,5.2c0,0.7,0,1.7-0.1,2.7c0,1.1-0.1,2.2-0.1,3.5
		c0,0.5,0,1.7,0.1,3.4c0.1,1.7,0.1,2.7,0.1,3c0,2.1,0.3,3.9,0.8,5.2c0.5,1.4,1.4,2.1,2.5,2.1c1.1,0,1.9-0.7,2.5-2.1
		c0.6-1.4,0.8-3.1,0.8-5.2c0-0.8,0-1.7,0-2.8C718.7,650.5,718.8,649.3,718.9,648z"/>
	<path class="st5" d="M775.8,662H761v-0.9c1.1,0,1.8-0.2,2-0.6c0.2-0.4,0.3-1.5,0.3-3.1l0-2.7v-11.9l0-2.4c0-1.7-0.2-2.9-0.5-3.7
		c-0.3-0.7-1-1.1-1.8-1.1c-0.6,0-1.2,0.3-1.9,1c-0.7,0.6-1.1,1.9-1.3,3.8v14.3l0,2.7c0,1.3,0.1,2.2,0.2,2.7c0.1,0.6,0.7,0.9,1.9,1
		v0.9h-14v-0.9c1.1,0,1.8-0.2,2-0.6c0.2-0.4,0.3-1.5,0.3-3.1l0-2.7v-11.9l0-2.4c0-1.7-0.2-2.9-0.5-3.7c-0.3-0.7-1-1.1-1.8-1.1
		c-1.1,0-1.9,0.4-2.3,1.3c-0.4,0.9-0.7,1.7-1,2.7v15.1l0,2.7c0,1.3,0.1,2.2,0.2,2.7c0.1,0.6,0.7,0.9,1.9,1v0.9H730v-0.9l1.1-0.1
		c1-0.1,1.5-0.4,1.7-0.8c0.2-0.4,0.3-1.4,0.3-2.8l0-2.7v-14.1l0-2.4c-0.1-0.9-0.2-1.6-0.3-2.1c-0.1-0.5-0.7-0.8-1.8-0.9l-1.1-0.1
		v-0.9h12.5v4.4c0.3-1.1,0.9-2.2,1.7-3.3s2.6-1.7,5.3-1.7c1.8,0,3.4,0.5,4.8,1.4c1.4,0.9,2.4,2.3,3,4.2c0.2-0.7,0.6-1.8,1.3-3.3
		c0.7-1.5,2.7-2.2,6-2.2c2.2,0,4.2,0.7,5.8,2.2c1.6,1.5,2.5,3.4,2.5,5.8v13.1l0,2.7c0,1.5,0.1,2.4,0.3,2.8c0.2,0.4,0.8,0.7,1.7,0.8
		l0.9,0.1V662z"/>
</g>
</svg>
